<svg xmlns="http://www.w3.org/2000/svg" width="644.35" height="221.63" viewBox="0 0 644.35 221.63">
  <defs>
    <style>
      .a {
        fill: #3c3c3b;
      }

      .b {
        fill: #575756;
      }

      .c {
        fill: #2e2d2c;
      }

      .d {
        isolation: isolate;
      }

      .e {
        fill: #9c182f;
      }

      .f {
        fill: #706f6f;
      }
    </style>
  </defs>
  <title>MEP-logo-dark-linear_v4_new</title>
  <g>
    <path class="a" d="M153.09,92.69s12.57,42.61,13.71,51.87c0,0,3.91,28.07-4.67,30.73,0,0-2.13,3.41-3.58-17.08,0,0-11.55-43.32-15.27-50.19l-2.06-4.82S153.68,90.22,153.09,92.69Z" transform="translate(0 0.02)"/>
    <path class="a" d="M97.21,96.16s-11.72,41.07-12.72,50c0,0-3.53,27,4.74,29.51,0,0,2.07,3.26,3.3-16.46,0,0,10.76-41.74,14.28-48.38l1.94-4.64S96.62,93.79,97.21,96.16Z" transform="translate(0 0.02)"/>
    <g>
      <path class="b" d="M53.56,91s1.63-2.46,1.83-1-1.8,4.51-1.8,4.51-.25.35.29.44S55,93.2,56.32,92.79a1.89,1.89,0,0,1,2.31,1.32,1.84,1.84,0,0,1,.06.62c-.22,1,1.77-2.36,2.88-1.39s.78,2.35,1.74,2.76a2.08,2.08,0,0,0,2.78-.59c.76-1,2-3.61,3.65-2.32s3,5.08,3.76,6.06,1.19,2.45,5.34,2.48,9,.37,9.46,1.6,4.22-1.33,4-2.91-2.31-.8-2-3.77-.3-9.18,2.45-13.39c0,0,6.08-7.55.46-15.92,0,0-.58-4-2.21-4.44,0,0-7.71-7.24-5.92-14.82,0,0,3.51-7.88,3.48-8.56s.93-1.52-1.07-2.66-1.91-.82-3.33-2.34A4.86,4.86,0,0,1,82.57,32c-.16-.53-1.82-4.69,3.06-9.12,0,0,5.86-3.56,6.71-5.42s4.89-5.11,6.18-5.68a8,8,0,0,0,0-1.2c-1.13.78-2.22,1.58-3.29,2.39-2.28,2.36-4.65,4.66-7,7a.51.51,0,0,1-.88-.45c-.34-.08-.59-.44-.29-.74.52-.52,1-1,1.58-1.53a.4.4,0,0,1,.12-.37c1.46-1.52,2.69-3.21,4.24-4.66a15,15,0,0,1,4-2.58l.38-.42a.5.5,0,0,1,.69-.06l.22-.09c-.91-4-4.66-10.29-19.77-3.75,0,0-.14,2.39-2.18,2.71,0,0-25.43,4.89-35,8.59,0,0-7.42.35-8.65,1.5,0,0-14,13.05-17.27,14.72,0,0-4.89,5.23-7.1,7.29a40.6,40.6,0,0,1-5.2,3.94S1.35,52.47,4.41,54.82c0,0-1.44,3.59,1.94,4.34a3.72,3.72,0,0,0-.83,2.2,6.58,6.58,0,0,0,.81,2.91c.43.78.06,1.36,1,1.77s.39-.25,1.26,1.3.89,1.66,2.1,2,2.59.78,1.17,2-.74,1.39-.74,1.39,2.25-.56,2.27-.22a3.73,3.73,0,0,0,.39,2.6c.72,1.21,1.35.27,1.79,1.16s-.33,1.49,1,1.88,1.88.14,2.18.92-.06,1.48.64,2.13,1.28,1.64,2.09,1.72a7.36,7.36,0,0,1,1.9.59c.95.3.74,1.33,1.8,1.28a2,2,0,0,0,1.06-.31.57.57,0,0,0,0,.26c.31.89,1.13,4,3.26,3.71a4.9,4.9,0,0,0,2.24-.63c-.6.92-.88,1.75-.29,2.24,1.67,1.39,1.28,1.53,2.74,1.34s2.92-.7,4.7.12,2,3.32,4.51,2,5.68-4.58,6.25-3.7,3.58,4.94,4,4.81m-21.16-8c.61-1.28,1.07-2.78,1.31-3.36S35,82.24,35,83.37" transform="translate(0 0.02)"/>
      <path class="b" d="M88.84,106.17a3,3,0,0,1-2.51-1.25,30.06,30.06,0,0,0-7.51-.67c-4.64,0-6.14-1.7-7.17-3.26l-.17-.25a16.13,16.13,0,0,1-1.1-2,25.69,25.69,0,0,0-1.54-2.82c-.11.16-.21.31-.28.43l-.43.64a4.59,4.59,0,0,1-5.8,1.43,3.57,3.57,0,0,1-1.84-1.71,2.44,2.44,0,0,1-4-.66,3.12,3.12,0,0,1-3,1.39A2.83,2.83,0,0,1,51.35,96a19,19,0,0,1-1.64-1.93c-.34-.43-.69-.88-1-1.32-.31.22-.62.46-.87.65a29,29,0,0,1-3.27,2.23,4.53,4.53,0,0,1-6.08-1.26,3.52,3.52,0,0,0-.65-.63,3.67,3.67,0,0,0-2.36-.06c-.32.06-.65.11-1,.15a3.88,3.88,0,0,1-3.84-1.18c-.2-.18-.45-.42-.81-.72a3.6,3.6,0,0,1-.82-1c-1.91,0-3.42-1.29-4.52-3.73a3.47,3.47,0,0,1-2.3-1.49l-.61-.24a.89.89,0,0,0-.36-.11,4.79,4.79,0,0,1-3.14-1.93c-.14-.15-.27-.31-.42-.45a3.77,3.77,0,0,1-1.22-2.32l-.59-.15a3.4,3.4,0,0,1-2.6-2.59,3.83,3.83,0,0,1-1.68-1.58,5.33,5.33,0,0,1-.51-1.08H11l-.64-.18A2.7,2.7,0,0,1,8.49,73a2.84,2.84,0,0,1,.19-1.77,5,5,0,0,1-2.19-2.42l-.13-.23a1.17,1.17,0,0,1-.15-.27,3.58,3.58,0,0,1-2.15-2.76v-.1a9.3,9.3,0,0,1-1.09-4,4.73,4.73,0,0,1,.11-1.24A4.61,4.61,0,0,1,2.1,59a5.79,5.79,0,0,1-.53-3.5C-1,51.77.26,45,.57,43.5l.22-1,.89-.56A37.73,37.73,0,0,0,6.49,38.3c2.12-2,6.92-7.11,7-7.16l.3-.32.39-.2c2.14-1.1,11.39-9.38,16.71-14.33.46-.43,1.85-1.73,9.83-2.14,9.93-3.73,34-8.38,35.06-8.58h0a1.87,1.87,0,0,0,.13-.4L76,3.63,77.49,3C85.12-.3,91.1-.9,95.27,1.21A10,10,0,0,1,100,6.45l.45-.35.31,3.3.28,1.19-.16.06v1.24l-.08,1.54-1.41.63c-1,.47-4.43,3.36-4.92,4.43-1,2.16-5,4.88-7.47,6.39-2.15,2-2.9,4.11-2.22,6.23l.11.38c0,.18.11.4,1,1.33A3.86,3.86,0,0,0,87.49,34c.31.16.7.36,1.24.66,2.21,1.23,3,2.94,2.34,5.06,0,.68-.51,2.22-3.6,9.15-1.07,5.24,3.79,10.7,5,12,2,1.11,2.83,3.93,3.14,5.59a16.16,16.16,0,0,1-.8,18.3c-1.72,2.73-1.82,6.77-1.9,9.74a17.88,17.88,0,0,1-.1,2.42v.27h0a4,4,0,0,1,2,2.94c.39,2.94-3.09,5.46-5,5.94A3.52,3.52,0,0,1,88.84,106.17ZM86,104.23ZM68.83,90.35a3.91,3.91,0,0,1,2.43.88c1.6,1.22,2.71,3.49,3.61,5.3.23.47.54,1.11.66,1.28l.28.41c.38.57.67,1,3,1,5.94,0,8.87.58,10.38,1.53a4.78,4.78,0,0,1-1.47-4.33c0-.55.07-1.27.09-2.11.08-3.39.2-8.51,2.76-12.43l.15-.2a11.19,11.19,0,0,0,.33-13l-.32-.46-.08-.56a8.23,8.23,0,0,0-.78-2.51l-.25-.07-.43-.4c-.35-.34-8.73-8.34-6.64-17.22l.15-.45c1.39-3.09,3-6.85,3.28-7.83v-.3l-.93-.49a8.15,8.15,0,0,1-2.84-2.24,7.59,7.59,0,0,1-2.13-3.44V32.6c-1.32-4.12,0-8.24,3.78-11.65l.38-.28.45-.28a2.7,2.7,0,0,1-.25-.61A2.89,2.89,0,0,1,85.25,17l1.14-1.1a3.28,3.28,0,0,1,.53-.75c.56-.58,1.09-1.21,1.66-1.87a36.54,36.54,0,0,1,2.67-2.89,16.79,16.79,0,0,1,3.82-2.64A5,5,0,0,0,93,5.69c-1.82-.91-5.43-1.37-12.39,1.44a5,5,0,0,1-4,3.37c-.16,0-25.23,4.87-34.48,8.46l-.38.14h-.41a33.14,33.14,0,0,0-7.21,1c-2.52,2.37-13.42,12.43-17.21,14.73-1.06,1.12-5,5.29-7,7.13a38.77,38.77,0,0,1-4.64,3.62c-.51,3.26-.28,6.63.56,7.27L7.34,54l-.71,1.76a2.08,2.08,0,0,0-.11.89l.28.07,4,.89L8.16,60.76a1.56,1.56,0,0,0-.25.52A4.13,4.13,0,0,0,8.39,63a4.18,4.18,0,0,1,.38.87,3.06,3.06,0,0,1,1.54,1.51c.07.15.19.37.37.69l.13.24c.1.16.2.34.28.48h.08c.85.2,3.12.73,3.62,2.8a3.29,3.29,0,0,1,.08.83l.84.62.08,1.24a4.21,4.21,0,0,1,0,.71,2.16,2.16,0,0,0,0,.36,3.09,3.09,0,0,1,2,1.68,5.52,5.52,0,0,1,.29.77,3.52,3.52,0,0,1,3,2.24,4.68,4.68,0,0,1,.31,1.51c.16.15.31.32.46.49l.29.32a6.48,6.48,0,0,1,1.38.42c.16.06.34.14.61.22a3.84,3.84,0,0,1,1.43.84l4.1-2.56-.88,5a6.71,6.71,0,0,0,.66,1.5,7.17,7.17,0,0,0,.9-.18h.06l-.15-.07c.36-.76.69-1.66.93-2.33.13-.38.25-.7.34-.91a3.38,3.38,0,0,1,3.57-2.12,2.93,2.93,0,0,1,1.4.79l5.24-4-7,10.66h0L34,88.78l.62-.1a8.39,8.39,0,0,1,5.3.45A7,7,0,0,1,42.17,91l.11.12a24.64,24.64,0,0,0,2.54-1.78c2-1.53,3.39-2.55,5-2.26a2.84,2.84,0,0,1,1.89,1.23c.08.13.2.3.34.49,1.16-1.44,2.35-2,3.62-1.72a2.9,2.9,0,0,1,2.19,2.56,2.66,2.66,0,0,1,0,.69,4.84,4.84,0,0,1,1.56.77,3.1,3.1,0,0,1,3.75.33,5.36,5.36,0,0,1,1.35,1.85,5.82,5.82,0,0,1,3.63-2.91A5.15,5.15,0,0,1,68.83,90.35ZM55.76,95.77a.57.57,0,0,1-.08.13A.57.57,0,0,0,55.76,95.77Zm5.38-.51Zm-7.33-4.08c0,.06.09.11.13.16h0ZM33.27,83.45h-.78a1,1,0,0,0,.12.46Zm-4.7.42Z" transform="translate(0 0.02)"/>
    </g>
    <g>
      <path class="c" d="M143.1,9.59s-1.53-5.68,4.53-7c0,0,10.63.26,11.45,2.34,0,0,15.64-.43,24.15.69,0,0,16.21.14,20.07,1.93a172.42,172.42,0,0,1,37.49,20.17s-.6,2.45.17,3.63,2.53,4,1.85,4.91-1.89,1.9-.75,3.06,2.07,2,1.78,3.4a10.92,10.92,0,0,0,.16,3.47c0,.76,1.86,1.28.5,3s-1.68,2.66-3.64,3.05-2.84.74-3.53,1.53a3.55,3.55,0,0,1-2.1,1.31c-.54,0-3-1.53-3.57.62s3,5.91,3,7.12-3.08-.31-2.25,2.08.07,5.29-5,5.22c0,0-1.39,1.13-2.08,1.77s1.49,1,.64,2.09a6.14,6.14,0,0,1-3,2c-1.24.51-1,.81-2.66.88a19.43,19.43,0,0,0-3,.6c-1.43.22-2.36-.35-2.69.28s.82,2.08-.26,2.13-1.65-.68-2.38-1-.77-.87-2.18-.35-2.34,0-2.26,1.77a3.4,3.4,0,0,1-1.47,3.24c-.53.18-2-.66-2.13.56s1,1.77-.27,2-2.84.74-3.73.93-.39-.44-2-.81-3.58.47-4.06,1.85-1.25,4-2.36,3.29-5.61-.64-3.77.18,3.68,1.79,2.25,2a8.94,8.94,0,0,1-3.44-.44s.57.73-.83,1.55S187.49,96.52,183,96s-5.28-1.41-6.85-.28-2.45,1.48-2,3.12-.3,5.31-2.66,4.82-.44-1.8-2.79-1.84-2.68.28-3.73.93-2.81,1.5-2.78,2.25-3.48-1.35-4.06-2.23a46.11,46.11,0,0,1-2-5L159.25,96s-3.84-16.63-6.14-19.55c0,0,6.86-22.57,6.06-28.28,0,0-.54-7.55-2.18-8.07,0,0,.28-5.47,2.4-6.47,0,0,5.8-6.78,5.69-9,0,0-4.07-6.17-9.14-7,0,0-5.92-3.35-6-4.11l-7.32-2.68Z" transform="translate(0 0.02)"/>
      <path class="c" d="M162,105.62c-1.13,0-3.83-1.86-4.32-2.61a41.25,41.25,0,0,1-2.09-5.16l-.14-.39,3.2-1.83c-.58-2.44-3.94-16.42-6-19l-.16-.2.07-.25c.07-.23,6.83-22.53,6-28.07-.25-3.52-1-7.41-1.83-7.67l-.37-.12v-.38c0-.58.36-5.64,2.58-6.84,2.14-2.51,5.4-6.89,5.51-8.5-.6-.86-4.31-5.93-8.72-6.65l-.17-.05c-4.45-2.53-5.7-3.63-6.06-4.15L141.93,11l.64-1.42a6.86,6.86,0,0,1,.69-4.7,6.33,6.33,0,0,1,4.23-2.8h.12c2.44.06,10.19.4,11.71,2.33,2.18,0,16.13-.32,24,.7.6,0,16.3.17,20.21,2a173.88,173.88,0,0,1,37.57,20.23l.28.2-.08.33c-.15.63-.43,2.42.1,3.23,2.48,3.76,2.24,4.93,1.84,5.48-.12.17-.26.34-.4.51-.75.92-1,1.32-.41,1.91l.18.17c1.06,1.09,2.07,2.11,1.73,3.68a7.05,7.05,0,0,0,.07,2.51,6,6,0,0,1,.11.84,1.65,1.65,0,0,0,.29.39,2,2,0,0,1,.22,2.82l-.12.12-.64.85a4.69,4.69,0,0,1-3.29,2.38c-1.92.39-2.68.71-3.25,1.37a4,4,0,0,1-2.45,1.48,2.59,2.59,0,0,1-.82-.2c-.54-.19-1.35-.47-1.83-.22a1.07,1.07,0,0,0-.47.68c-.32,1.12.92,3.07,1.83,4.5a6.21,6.21,0,0,1,1.23,2.46c0,1-1,1.06-1.53,1.09-.28,0-.75,0-.83.17s-.09.16.08.67a4.3,4.3,0,0,1-.36,4c-.9,1.25-2.55,1.88-4.91,1.88-.34.29-1.24,1-1.8,1.54l.15.13a1.34,1.34,0,0,1,.55,1.82.94.94,0,0,1-.12.18,6.31,6.31,0,0,1-3.07,2.07h-.1a8.52,8.52,0,0,0-.8.4,3.51,3.51,0,0,1-2,.52,5.76,5.76,0,0,0-1.64.28,6.69,6.69,0,0,1-1.34.31,5.7,5.7,0,0,1-1.65,0,2.43,2.43,0,0,0-.66,0,2.08,2.08,0,0,0,.11.66,1.57,1.57,0,0,1,0,1.37.92.92,0,0,1-.78.38,3.27,3.27,0,0,1-2-.64,3.16,3.16,0,0,0-.63-.34,3.6,3.6,0,0,1-.61-.33c-.29-.21-.45-.31-1.22,0a5.61,5.61,0,0,1-1.16.28c-.75.13-.81.14-.77,1,.09,2-1,3.48-1.81,3.75a1.89,1.89,0,0,1-1,0,1.71,1.71,0,0,0-.78,0,.6.6,0,0,0,0,.19,2,2,0,0,0,.18.93,1.07,1.07,0,0,1,.05,1,1.17,1.17,0,0,1-.92.5c-.74.13-1.62.37-2.4.59-.5.14-1,.26-1.31.34a1.08,1.08,0,0,1-1.16-.3,1.9,1.9,0,0,0-1.08-.52,3.09,3.09,0,0,0-3.46,1.53l-.11.31c-.56,1.66-1.09,3.06-2,3.38a1.15,1.15,0,0,1-1-.14,6.32,6.32,0,0,0-2.66-.4c2.11,1,2.48,1.45,2.41,2s-.36.61-.92.7a8.35,8.35,0,0,1-2.94-.26,2.16,2.16,0,0,1-1.16,1.3c-.11.07-.14.11-.15.13a1.42,1.42,0,0,0,.07.22.83.83,0,0,1-.05.87c-.28.35-.76.46-3,.19-1.52-.18-2.65-.41-3.47-.57-1.66-.34-2.16-.43-3,.19l-.55.4c-1.2.83-1.56,1.09-1.27,2.19a5.7,5.7,0,0,1-1.05,4.75,2.28,2.28,0,0,1-2.19.69c-1.35-.29-1.62-.87-1.78-1.44-.07-.27-.1-.38-.91-.39-2.06,0-2.41.19-3.28.74l-.19.12-.68.4c-.55.32-1.84,1.07-1.86,1.4a.62.62,0,0,1-.44.64A.63.63,0,0,1,162,105.62Zm-5.34-7.71a38.35,38.35,0,0,0,1.85,4.55,10.08,10.08,0,0,0,3.21,2.12c.27-.72,1.3-1.32,2.29-1.89l.65-.39.19-.12c1-.65,1.58-.93,3.82-.89,1.31,0,1.67.43,1.87,1.13.08.31.14.54,1,.72a1.28,1.28,0,0,0,1.27-.4,4.71,4.71,0,0,0,.8-3.8c-.47-1.78.43-2.41,1.67-3.27l.54-.39c1.22-.88,2.08-.71,3.81-.36.85.17,1.91.38,3.39.56a14.07,14.07,0,0,0,1.94.14,1.12,1.12,0,0,1,.55-1.42c.57-.34.67-.59.69-.69a.24.24,0,0,0,0-.12l-1-1.3,1.57.51a9,9,0,0,0,3,.46A16.63,16.63,0,0,0,187.59,92c-.21-.09-.71-.31-.73-.77a.63.63,0,0,1,.34-.59,7.21,7.21,0,0,1,4.63.31H192c.51-.18,1.09-1.91,1.37-2.75l.11-.31c.55-1.6,2.72-2.62,4.64-2.18a3,3,0,0,1,1.54.76l.08.08a.54.54,0,0,0,.18,0c.33-.07.77-.19,1.25-.33.81-.22,1.71-.47,2.51-.6h.14V85.5a2.78,2.78,0,0,1-.31-1.5,1.25,1.25,0,0,1,.45-.89,2,2,0,0,1,1.55-.11,2.05,2.05,0,0,0,.49.06,3.13,3.13,0,0,0,1.11-2.75c-.07-1.61.65-1.87,1.61-2a4.84,4.84,0,0,0,1-.23,2,2,0,0,1,2.13.13,1.69,1.69,0,0,0,.39.22,4.47,4.47,0,0,1,.81.43,2.31,2.31,0,0,0,1.37.49,2.77,2.77,0,0,0-.11-.48,1.86,1.86,0,0,1,0-1.39c.35-.65,1-.59,1.64-.53a5.78,5.78,0,0,0,2.61-.28,6.75,6.75,0,0,1,1.89-.32A2.62,2.62,0,0,0,222,76a8.68,8.68,0,0,1,.92-.45h.1a5.41,5.41,0,0,0,2.66-1.76c.15-.19.18-.23-.29-.62a1.29,1.29,0,0,1-.59-.89.85.85,0,0,1,.3-.64c.69-.64,2.05-1.74,2.1-1.78l.14-.12h.15c2.06,0,3.56-.47,4.27-1.46a3.37,3.37,0,0,0,.23-3.1,1.76,1.76,0,0,1,0-1.55,2,2,0,0,1,1.59-.62,1.71,1.71,0,0,0,.64-.09A12.27,12.27,0,0,0,233.11,61c-1.07-1.68-2.4-3.76-2-5.32a2,2,0,0,1,1-1.29,3.36,3.36,0,0,1,2.62.17c.16,0,.39.13.46.14A3.17,3.17,0,0,0,237,53.52c.83-1,1.89-1.3,3.81-1.69,1.42-.28,1.82-.82,2.69-2,.19-.26.41-.55.66-.86.66-.85.37-1.18-.07-1.67a1.68,1.68,0,0,1-.54-1,4.57,4.57,0,0,0-.1-.73,8.14,8.14,0,0,1,0-2.87c.21-1-.36-1.63-1.48-2.76l-.17-.18c-1.25-1.28-.29-2.46.34-3.24.13-.16.26-.31.37-.47s.49-.76-1.87-4.34c-.71-1.08-.46-2.91-.31-3.68A174.11,174.11,0,0,0,203.14,8c-3.77-1.74-19.75-1.9-19.91-1.9-8.44-1.11-24-.69-24.14-.69h-.35l-.13-.33c-.43-1.09-6-1.89-10.93-2a5.34,5.34,0,0,0-3.56,2.29,5.8,5.8,0,0,0-.54,4.1v.18l-.34.75,7.18,2.6v.26c.36.53,3.15,2.32,5.63,3.72,5.19.9,9.22,6.94,9.39,7.19l.08.12v.14c.11,2.39-5.21,8.68-5.81,9.39l-.17.13c-1.42.67-2,4.13-2.09,5.74,1.53,1.22,2,6.59,2.16,8.31.77,5.47-5.24,25.67-6,28.23,2.35,3.46,5.92,18.85,6.07,19.52l.09.36Z" transform="translate(0 0.02)"/>
    </g>
    <path class="a" d="M114.49,167.63Z" transform="translate(0 0.02)"/>
    <path class="a" d="M114.49,167.93Z" transform="translate(0 0.02)"/>
    <path class="a" d="M159,17.81s-5.24-3.26-5.3-4.54c0,0-5.54-4.07-10.76-4.06,0,0-10.43.14-10.88-1a13.15,13.15,0,0,0-8.44,1s-6.7-1.09-8.65-.88c0,0-6.13.17-10,2a19.71,19.71,0,0,0-5.84,0l-.06.06c-1.2.91-2.34,1.84-3.46,2.8-2,2.35-4.09,4.63-6.12,7a.46.46,0,0,1-.66,0,.49.49,0,0,1-.13-.46.53.53,0,0,1-.21-.11C86.37,21,83.65,23,83.15,23.82c0,0-4.74,7.47,3.81,11.75,0,0,2.34,2.47.86,4.29,0,0-4.64,9.69-1.64,15.16,0,0,5.7,7.46,5.8,9.67,0,0,5.62,11.32,1.67,16.07,0,0-5.58,9.15-4,18.9,0,0,11,8.14,11.83,10,0,0,2.46,2.46,2.38,3.63a21,21,0,0,1,5.28,9.46s2.94,12.73,3.15,14.36c0,0,1.37,24.46,1.54,29.69-.31,5.21-1.75,29.3-1.42,31.48,0,0-.36,11.72,4.21,14.55,0,0,.78.2,1.9.56h0c.62.2,1.32.44,2.06.72,2,.41,4.18.54,5.84-.36.47-6.51,1.31-18,1.41-19.73,0,0,2-27.93,3.52-30.92,0,0,10.31-22.12,8.73-30.82,0,0,5.44-26,18.08-34.65,0,0,2.67-1.65,3.06-1.55l-.39-.1s-2.92-14.83-6.25-19.12A13.87,13.87,0,0,0,156.83,70s4.6-18.81,4.43-22.31c0,0-.55-6.29-2.34-8.2,0,0,1.09-7.42,3-8.44,0,0,4.18-5.46,4.46-7.81C166.38,23.2,163.69,18.64,159,17.81Z" transform="translate(0 0.02)"/>
    <path class="a" d="M88.88,32.57A44.68,44.68,0,0,0,89,45.48c.13.83,1.93.42,1.94-.33a23.06,23.06,0,0,0-2.87-11.72c-.36-.65-1.81-.17-1.87.5a25.73,25.73,0,0,0,1.08,8.81c.23.88,2.08.37,1.93-.52L87.49,31.57c-.14-.82-1.94-.42-1.94.34a56.52,56.52,0,0,0,2.13,16c.22.79,2,.44,1.94-.34L89.13,30.9c0-1-2-.7-2,.15l.47,16.63,1.94-.33a55.54,55.54,0,0,1-2.05-15.6l-1.94.34,1.76,10.65,1.93-.52a24.63,24.63,0,0,1-1-8.45l-1.86.5a21.89,21.89,0,0,1,2.69,11L91,45a43.61,43.61,0,0,1-.11-12.55c.13-1-1.84-.71-2,.15Z" transform="translate(0 0.02)"/>
    <path class="a" d="M91.79,20.62l.74-.34-1.45-.11.7-.13.34.27a.94.94,0,0,1,.54-.55c.83-.27.67-.84-.18-.66l-1.6.35.71.35.16-.16.32-.77-1.51.47.66.51,4.32-2.23c.26-.13.56-.36.22-.56s-1.06.08-1.35.23l-4.33,2.22c-.94.49.14.67.66.51l1.51-.47c.19-.05.84-.22.87-.5s-.35-.29-.55-.27a4.7,4.7,0,0,0-2.74,1.12c-.44.38.59.37.71.35l1.61-.35L92,19.24a2.9,2.9,0,0,0-1.76,1.38c-.11.2.23.26.34.27a2.6,2.6,0,0,0,2.29-.82c.48-.63-1.27-.2-1.45-.12l-.73.34c-.28.12-.56.36-.22.56S91.44,20.76,91.79,20.62Z" transform="translate(0 0.02)"/>
    <path class="a" d="M92.1,20.12,94.26,19c.24-.13.65-.36.57-.7s-.59-.37-.85-.32a14.61,14.61,0,0,0-3.18.9c-.63.26-.81,1,0,1a4.74,4.74,0,0,0,4.69-2.58c.39-.88-1.15-.6-1.51-.37l-3.7,2.29,1.22.65L95,17.45l-1.46-.52-3.71,2.93c-.34.27-.15.64.2.75a1.59,1.59,0,0,0,1.37-.37l3.71-2.93c.31-.24.19-.57-.11-.71a1.51,1.51,0,0,0-1.29.2l-3.45,2.42c-.3.21-.52.55-.15.81s1,0,1.37-.16c1.24-.75,2.47-1.52,3.7-2.29l-1.52-.37a2.16,2.16,0,0,1-2.08,1.5v1a10.27,10.27,0,0,1,2.16-.63l-.27-1-2.16,1.15c-.27.14-.77.46-.5.83s1,.21,1.29.05Z" transform="translate(0 0.02)"/>
    <path class="a" d="M88.87,54.81a52.47,52.47,0,0,1,4.36,10.78L95.1,65c-2.28-2.38-4.41-4.8-4.94-8.16l-1.93.52,3,7.63c.25.63,2.12.12,1.93-.52a67.94,67.94,0,0,0-3.48-9.12l-1.93.51,4.53,9.12,1.87-.63-1.51-1.42c-.44-.4-2.22,0-1.8.75l1.91,3.18c.3.5,2.14-.13,1.86-.63l-1.3-2.45-1.94.52L94,68.76c.44.78.82,2,1.57,2.54.44.31,1.73.15,1.86-.5v-.11A.4.4,0,0,0,97,70.3h-.08c-.6-.11-2.27.83-1.18,1L95.42,71l1.87-.5c-1.66-1.17-3-5.07-4-6.82-.36-.63-2.22,0-1.94.52l1.31,2.44,1.87-.63-1.91-3.18-1.8.75L92.4,65c.36.34,2.17,0,1.87-.63L89.73,55.3c-.32-.64-2.2,0-1.93.51a68.07,68.07,0,0,1,3.48,9.13l1.93-.52-3-7.63c-.25-.63-2-.16-1.93.52.55,3.46,2.72,5.93,5.07,8.39.37.38,2,0,1.86-.63A52,52,0,0,0,90.8,54.3C90.46,53.66,88.59,54.3,88.87,54.81Z" transform="translate(0 0.02)"/>
  </g>
  <g class="d">
    <g class="d">
      <path class="e" d="M195.05,30.14h33.8l27.53,44.69,27.54-44.69h33.8V145.56H285.9V79.28l-29.52,45.18h-.65L226.38,79.61v66H195.05Z" transform="translate(0 0.02)"/>
      <path class="e" d="M356.63,29.32h30.84L436.6,145.56H402.31L393.9,125H349.38l-8.25,20.61H307.5Zm28,70.73L371.8,67.24l-13,32.81Z" transform="translate(0 0.02)"/>
    </g>
    <g class="d">
      <path class="e" d="M427,30.14h54.58c17.64,0,29.84,4.62,37.59,12.53,6.76,6.6,10.23,15.5,10.23,26.88v.33c0,17.64-9.4,29.35-23.75,35.45l27.54,40.23H496.29L473,110.61H459v35H427Zm53.09,55.4c10.89,0,17.15-5.27,17.15-13.68v-.33c0-9.07-6.59-13.69-17.31-13.69H459v27.7Z" transform="translate(0 0.02)"/>
    </g>
    <g class="d">
      <path class="e" d="M562.42,29.32h30.83l49.14,116.24h-34.3L599.68,125H555.16l-8.24,20.61H513.28Zm28,70.73L577.58,67.24l-13,32.81Z" transform="translate(0 0.02)"/>
    </g>
  </g>
  <g class="d">
    <g class="d">
      <path class="a" d="M195,160.53a.55.55,0,0,1,.55-.55H207.4a.55.55,0,0,1,.55.55v3.13a.55.55,0,0,1-.55.54h-7.94v3.56H206a.57.57,0,0,1,.54.54v3.13a.54.54,0,0,1-.54.54h-6.54v3.88h7.94a.55.55,0,0,1,.55.54v3.13a.54.54,0,0,1-.55.54H195.53a.54.54,0,0,1-.55-.54Z" transform="translate(0 0.02)"/>
      <path class="a" d="M223.8,160.53a.55.55,0,0,1,.55-.55h3.41a.57.57,0,0,1,.55.55v15.32h6.83a.54.54,0,0,1,.54.54v3.13a.54.54,0,0,1-.54.54H224.35a.54.54,0,0,1-.55-.54Z" transform="translate(0 0.02)"/>
      <path class="a" d="M250.48,160.53A.55.55,0,0,1,251,160H262.9a.55.55,0,0,1,.54.55v3.13a.54.54,0,0,1-.54.54H255v3.56h6.54a.57.57,0,0,1,.55.54v3.13a.54.54,0,0,1-.55.54H255v3.88h7.95a.54.54,0,0,1,.54.54v3.13a.54.54,0,0,1-.54.54H251a.54.54,0,0,1-.54-.54Z" transform="translate(0 0.02)"/>
    </g>
    <g class="d">
      <path class="a" d="M279.66,160.53a.55.55,0,0,1,.55-.55h6.91a6.4,6.4,0,1,1,0,12.8h-3v6.74a.56.56,0,0,1-.55.54h-3.38a.54.54,0,0,1-.55-.54Zm7.2,8.06a2.26,2.26,0,0,0,2.27-2.27,2.19,2.19,0,0,0-2.27-2.12h-2.72v4.39Z" transform="translate(0 0.02)"/>
    </g>
    <g class="d">
      <path class="a" d="M308.6,160.53a.57.57,0,0,1,.55-.55h3.41a.55.55,0,0,1,.55.55v7.23h8.2v-7.23a.55.55,0,0,1,.55-.55h3.41a.56.56,0,0,1,.54.55v19a.55.55,0,0,1-.54.54h-3.41a.54.54,0,0,1-.55-.54V172h-8.2v7.55a.54.54,0,0,1-.55.54h-3.41a.56.56,0,0,1-.55-.54Z" transform="translate(0 0.02)"/>
      <path class="a" d="M340.18,179.32l9-19.31a.57.57,0,0,1,.49-.31h.28a.59.59,0,0,1,.49.31l9,19.31a.5.5,0,0,1-.49.74h-3.18c-.52,0-.75-.17-1-.71l-1-2.27h-7.8l-1,2.3a1.05,1.05,0,0,1-1,.68h-3.15A.5.5,0,0,1,340.18,179.32ZM352,173.18l-2.18-4.73h0l-2.15,4.73Z" transform="translate(0 0.02)"/>
      <path class="a" d="M373.74,160.21a.53.53,0,0,1,.54-.51H375l11.44,11h0V160.53A.55.55,0,0,1,387,160h3.44a.56.56,0,0,1,.54.55v19.3a.53.53,0,0,1-.54.52H390a.75.75,0,0,1-.37-.14L378.3,168.82h0v10.7a.54.54,0,0,1-.55.54h-3.41a.56.56,0,0,1-.55-.54Z" transform="translate(0 0.02)"/>
      <path class="a" d="M410.53,164.2h-4.1a.55.55,0,0,1-.55-.54v-3.13a.55.55,0,0,1,.55-.55h12.74a.55.55,0,0,1,.54.55v3.13a.54.54,0,0,1-.54.54h-4.11v15.32a.55.55,0,0,1-.54.54h-3.44a.56.56,0,0,1-.55-.54Z" transform="translate(0 0.02)"/>
    </g>
    <g class="d">
      <path class="a" d="M453.54,160.53a.55.55,0,0,1,.55-.55H461a6.4,6.4,0,1,1,0,12.8h-3v6.74a.56.56,0,0,1-.55.54h-3.38a.54.54,0,0,1-.55-.54Zm7.21,8.06a2.25,2.25,0,0,0,2.26-2.27,2.19,2.19,0,0,0-2.26-2.12H458v4.39Z" transform="translate(0 0.02)"/>
    </g>
    <g class="d">
      <path class="a" d="M482.5,160.53A.54.54,0,0,1,483,160h8.58a6.24,6.24,0,0,1,6.25,6.2,6.31,6.31,0,0,1-4.24,5.77l3.93,7.28a.54.54,0,0,1-.49.83h-3.82a.54.54,0,0,1-.46-.25L489,172.2h-2v7.32a.56.56,0,0,1-.55.54H483a.53.53,0,0,1-.54-.54Zm8.74,8a2.3,2.3,0,0,0,2.18-2.29,2.2,2.2,0,0,0-2.18-2.19H487v4.48Z" transform="translate(0 0.02)"/>
    </g>
    <g class="d">
      <path class="a" d="M522.68,159.7a10.33,10.33,0,1,1-10.3,10.35A10.3,10.3,0,0,1,522.68,159.7Zm0,16.06a5.74,5.74,0,1,0-5.71-5.71A5.75,5.75,0,0,0,522.68,175.76Z" transform="translate(0 0.02)"/>
    </g>
    <g class="d">
      <path class="a" d="M545.46,177.54l1.95-1.92a.54.54,0,0,1,.77,0,1.8,1.8,0,0,0,1.46.6c.81,0,1.7-.75,1.7-2.18V160.53a.55.55,0,0,1,.54-.55h3.5a.55.55,0,0,1,.55.55v13.54a6,6,0,0,1-6.17,6.28,5.48,5.48,0,0,1-4.36-2.09A.59.59,0,0,1,545.46,177.54Z" transform="translate(0 0.02)"/>
      <path class="a" d="M572.44,160.53A.55.55,0,0,1,573,160h11.88a.55.55,0,0,1,.54.55v3.13a.54.54,0,0,1-.54.54h-8v3.56h6.54a.56.56,0,0,1,.54.54v3.13a.53.53,0,0,1-.54.54h-6.54v3.88h8a.54.54,0,0,1,.54.54v3.13a.54.54,0,0,1-.54.54H573a.54.54,0,0,1-.55-.54Z" transform="translate(0 0.02)"/>
      <path class="a" d="M610.16,159.7a9.62,9.62,0,0,1,6.94,2.66.54.54,0,0,1,0,.81l-2.24,2.32a.5.5,0,0,1-.71,0A5.85,5.85,0,0,0,610.3,164a5.87,5.87,0,0,0,0,11.73,6.09,6.09,0,0,0,3.85-1.38.56.56,0,0,1,.74,0l2.24,2.38a.58.58,0,0,1,0,.78,9.86,9.86,0,0,1-7,2.78,10.33,10.33,0,1,1,0-20.65Z" transform="translate(0 0.02)"/>
      <path class="a" d="M635.17,164.2h-4.1a.55.55,0,0,1-.55-.54v-3.13a.55.55,0,0,1,.55-.55H643.8a.55.55,0,0,1,.55.55v3.13a.55.55,0,0,1-.55.54h-4.1v15.32a.56.56,0,0,1-.54.54h-3.45a.56.56,0,0,1-.54-.54Z" transform="translate(0 0.02)"/>
    </g>
  </g>
  <path class="f" d="M104.55,95.15S126,77.32,146.3,92.66C146.3,92.66,129.13,79.13,104.55,95.15Z" transform="translate(0 0.02)"/>
  <path class="f" d="M103.54,102.73s2.91-5.68,24.61-5.11c0,0,13.67-.87,16.42,3.42C144.57,101,124.35,93.29,103.54,102.73Z" transform="translate(0 0.02)"/>
  <path class="f" d="M107,111.72s17.24-5.07,34.49-3.19C141.49,108.53,123.23,108.64,107,111.72Z" transform="translate(0 0.02)"/>
  <path class="f" d="M109.1,115.8s19.88,0,31.52-2.34c0,0-15.76,4.56-31.8,2.69Z" transform="translate(0 0.02)"/>
  <path class="f" d="M111.11,120.3S123,125.94,137.55,119C137.55,119,122.21,129.44,111.11,120.3Z" transform="translate(0 0.02)"/>
  <path class="f" d="M111.68,126.15s8.49,4.58,20.23,1.19C131.91,127.34,118.49,132.77,111.68,126.15Z" transform="translate(0 0.02)"/>
  <path class="f" d="M118.49,126.59s14.93.53,18.32-4.59C136.79,122,132.74,125.8,118.49,126.59Z" transform="translate(0 0.02)"/>
  <path class="f" d="M112.72,129.26s3.16,6.63,18.21,3.09c0,0-12.15,4.47-18.08-.23l-.74-3Z" transform="translate(0 0.02)"/>
  <path class="f" d="M136.34,132.11s-8.42,6.85-18,4.43C118.32,136.54,130.1,140.67,136.34,132.11Z" transform="translate(0 0.02)"/>
  <path class="f" d="M128.94,142.31s-8,2.65-14.29-1.75C114.65,140.56,122.06,146.8,128.94,142.31Z" transform="translate(0 0.02)"/>
  <path class="a" d="M123.78,212.49a5.16,5.16,0,0,1,.38,4l.4-.29-.23.11,1.35-.25c-.56-.09-.59-.86-.76-1.27a3.5,3.5,0,0,0-.58-.92,3.83,3.83,0,0,0-2-1.24c-.26-.07-1.89.19-1.76.63a12.84,12.84,0,0,0,1.27,2.83c.36.59.78,1.46,1.55,1.53,1.68.15,2.61-1.27,2.57-2.79l-1.93.52a.71.71,0,0,1-.16.76l1.84-.34a4.78,4.78,0,0,0-4-2.55c-.21,0-1.9.5-1.54.71a4,4,0,0,1,2,2.87c.14,1,.34,1.37,1.41,1.14,2.25-.46,2.63-3,1.51-4.78-.3-.46-2.07.3-1.93.52a3.58,3.58,0,0,1,.62,1.82c0,.25-.08,1.8-.47,1.93l1.12-.16c-.38-.12-.29-.68-.33-1a4,4,0,0,0-.44-1.32,4.18,4.18,0,0,0-1.68-1.68l-1.54.71a4.13,4.13,0,0,1,3.34,2.3c.22.42,1.62-.09,1.84-.34a1.16,1.16,0,0,0,.34-1.12c-.07-.38-1.94,0-1.93.52,0,.32-.05,1.57-.48,1.78l1.35-.26c-.62-.11-1.23-1.44-1.49-1.93a13.6,13.6,0,0,1-.91-2.2l-1.76.62a3.41,3.41,0,0,1,2.32,2.08c.34.88.44,1.47,1.54,1.35.9-.11,1.52-.45,1.68-1.35a5.86,5.86,0,0,0-.55-3.45c-.2-.45-2.07.21-1.93.52Z" transform="translate(0 0.02)"/>
  <path class="a" d="M124.31,213.25c.22.9.45,2.71-.32,3.47s-1.36-1.46-1.52-2.07c-.47-1.85-1.1-2.94-3-3.6-.54-.19-2.29.63-1.55.89,2,.7,2.2,2,2.74,3.81.35,1.17,1,2.2,2.33,2.3,2.92.24,3.79-3,3.22-5.31-.15-.62-2.09-.12-1.93.51Z" transform="translate(0 0.02)"/>
  <path class="a" d="M122.12,214.18a7.49,7.49,0,0,0-3.51-3c-.5-.22-2.09.42-1.44,1.09,1.7,1.75,2.76,4.89,5.06,5.95a2.37,2.37,0,0,0,2.53-.25c1-.85,1-2.62.95-3.8,0-1-2-.73-2,.14,0,.49.11,2.32-.37,2.48s-1.41-1.31-1.66-1.65a31.76,31.76,0,0,0-2.79-3.73l-1.4,1.07a6.24,6.24,0,0,1,2.86,2.56C120.81,215.79,122.65,215,122.12,214.18Z" transform="translate(0 0.02)"/>
  <path class="a" d="M122.09,214a4.44,4.44,0,0,1-.34,3.35,1.7,1.7,0,0,1-.42.63c.16,0,0-.55,0-.61s0-.65.18-.67.32.73.28.85c-.16.41.13.67.56.69a2.69,2.69,0,0,0,2.49-1.16c.57-.8-1.32-.72-1.7-.29l-.88,1-.37.43c-.35.28-.35.36,0,.21l.64.11c-.31-.18-.23-1.35-.26-1.65l-.17-2-1.54.85a19.13,19.13,0,0,0,4.4.34l-.86-.53a3.86,3.86,0,0,1-.83,1.35c-.23.24-.91.88-1.28.82s-.94-2.41-1.11-2.95c-.25-.78-2.18-.25-1.94.52a13.09,13.09,0,0,0,1.07,3.14c.5.76,1.51.66,2.29.44a5.52,5.52,0,0,0,3.74-3.51c.16-.46-.62-.54-.86-.53a14.44,14.44,0,0,1-3.47-.28c-.55-.11-1.6.12-1.54.85.09,1.07.1,2.18.27,3.24a1.15,1.15,0,0,0,.76,1c1.54.44,2.68-1.46,3.5-2.4L123,217h0l.56.7c.53-1.42-.82-2.47-2.19-2.24a2.33,2.33,0,0,0-1.93,3c.61,1.61,2.64.9,3.47-.1a5.34,5.34,0,0,0,1-4.82c-.21-.79-2.14-.27-1.93.52Z" transform="translate(0 0.02)"/>
  <path class="a" d="M124.26,212.37c0,1.8.34,3.54-.81,5-.34.45-.81,1.41-1.58,1-.57-.26-1.07-2.07-1.29-2.59-.35-.81-.57-2-1.46-2.32l-.84-.1a1.92,1.92,0,0,1-1-1.5,13.37,13.37,0,0,1-.6-3.06l-1.93.52a6.19,6.19,0,0,0,3.75,5.12c.55.29,2.33-.51,1.54-.93a5.67,5.67,0,0,1-3.36-4.71c-.1-.64-2-.19-1.93.52.17,1.28.31,3.17,1,4.27.49.76,1,.68,1.71,1.07,1.89,1,1.32,4.55,3.77,5.14,1.61.38,2.75-.84,3.65-2a5.39,5.39,0,0,0,1.31-2.2,20.74,20.74,0,0,0,0-3.86c0-.59-1.93-.23-1.93.52Z" transform="translate(0 0.02)"/>
  <path class="a" d="M119.72,215.41l-.09-3.62c0-.39-1.95-.08-1.93.52l.09,3.62C117.79,216.32,119.79,216,119.72,215.41Z" transform="translate(0 0.02)"/>
  <path class="a" d="M113.49,207.17c-.16,2.39-.38,5.34.4,7.65.66,2,2.63,2,4.41,2.09.51,0,2.06-.82,1-1.12a9.85,9.85,0,0,0-3.61-.56,1.27,1.27,0,0,0-1.09.68c-.19.51,0,.79.46,1a2.72,2.72,0,0,0,.94.14,14.33,14.33,0,0,1,2.61.41c.65.19,2.27-.76,1.17-1.09a9.67,9.67,0,0,0-1.61-.38c-.28,0-1.78,0-1.64-.35l-1.09.67a8,8,0,0,1,2.69.53l1-1.12c-1.27-.06-2.71-.07-3.22-1.46a8.41,8.41,0,0,1-.31-1.78,31.54,31.54,0,0,1-.08-5.58c.06-.83-1.89-.47-1.94.23Z" transform="translate(0 0.02)"/>
  <path class="a" d="M112.82,205.42c-.17,2.59.46,5,.78,7.5.19,1.58,0,3.48,1.74,4.11.3.11,2.17-.32,1.82-.64a1.22,1.22,0,0,0-1-.38,2.09,2.09,0,0,0-1.58.55c-.86,1.44,1.32,1,2,.95a2.46,2.46,0,0,1,2.59,1.11c.27.45.07,1.18.41,1.63.62.82,1.3.79,2.21.7l.62-.69h-.18l.78.06-.07-.17c-.17-.42-2.06.2-1.93.52l.06.17c.09.21.65.1.78.07H122c.43-.08,1.83-.81.62-.69-1.74.16-1.12-2-1.88-2.82a2.32,2.32,0,0,0-1.28-.63c-.27-.07-3.31,0-3-.57l-1.58.55.41.27,1.82-.64c-1.9-.67-1.54-3.4-1.79-5.06a29.58,29.58,0,0,1-.62-6.43c0-.22-1.89,0-1.93.53Z" transform="translate(0 0.02)"/>
  <path class="a" d="M124.33,212.58a12.33,12.33,0,0,1-.27,4.91,5.33,5.33,0,0,1-.83,1.89,8.39,8.39,0,0,1-.76,1.29l1.37-.18c-.54-.21-.51-.8-.65-1.26-.21-.67-2.14-.13-1.94.52.29.92.39,1.79,1.57,1.74a2,2,0,0,0,1.67-1.15,10.4,10.4,0,0,0,1.56-3.38,12.8,12.8,0,0,0,.22-4.89c-.12-.66-2.06-.19-1.94.51Z" transform="translate(0 0.02)"/>
  <path class="a" d="M122.49,220.78s.46,0,.2-.08l-.31-.1a1.52,1.52,0,0,1-.64-.59c-.24-.45-2,0-1.93.51a1.31,1.31,0,0,0,1.51,1.07c.66,0,1.77-.34,2-1.1.12-.47-1.78-.2-1.91.32a.69.69,0,0,0-.07.19l.92-.25a.83.83,0,0,1-.18-.13,1.19,1.19,0,0,1-.31-.61l-1.93.51c.83,1.47,3,1.19,4.17.37.31-.21.23-.44-.12-.48a2.24,2.24,0,0,0-1.37.37Z" transform="translate(0 0.02)"/>
  <path class="a" d="M118.85,214.27a4.21,4.21,0,0,1-1.57-.3l.2.21a4.79,4.79,0,0,1,0-1.77c0-.44-.52-.47-.84-.44-.79.07-1.84.62-1.71,1.56a1.51,1.51,0,0,0,.63.93c.17.12.36.2.53.32a.81.81,0,0,1,.28.24c0,.34.2.31.51-.06l1.1.24a1.87,1.87,0,0,1-.22-.83c0-.83-1.92-.43-1.93.23a2.41,2.41,0,0,0,.22,1.12c.2.4.75.32,1.1.25.7-.15,1.53-.78,1.1-1.56a1.86,1.86,0,0,0-.79-.68,1.51,1.51,0,0,1-.43-.32.65.65,0,0,1-.16-.32c0-.29-.11-.3-.49,0l-.84-.44a8.79,8.79,0,0,1-.07,1.36.87.87,0,0,0,.26.92,2.9,2.9,0,0,0,1,.3c.44.08.87.14,1.31.18a1.49,1.49,0,0,0,1.27-.53c.23-.41-.2-.57-.53-.6Z" transform="translate(0 0.02)"/>
  <path class="a" d="M113,204.15l-.09,2.51c0,.35,1.9.09,1.93-.52l.09-2.51C115,203.28,113.06,203.54,113,204.15Z" transform="translate(0 0.02)"/>
  <path class="a" d="M114.75,205.14a17.58,17.58,0,0,0,.21-2.51c0-.26-1.92,0-1.93.52a17.45,17.45,0,0,1-.21,2.5c0,.18,1.84.06,1.93-.51Z" transform="translate(0 0.02)"/>
  <path class="a" d="M116.38,216.48a1.76,1.76,0,0,1-.2-.8c-.08-.89-1.77-.23-1.94.35a2.71,2.71,0,0,0-.16.75l1.94-.34a14.31,14.31,0,0,1,.64-5c.26-.84-1.7-.61-2,.17A15,15,0,0,0,114,217c0,.82,1.84.33,1.94-.34a2.78,2.78,0,0,1,.16-.76l-1.94.35a2.94,2.94,0,0,0,.35,1.11c.36.7,2.22,0,1.78-.83Z" transform="translate(0 0.02)"/>
  <path class="a" d="M113.09,203.9a7,7,0,0,1,0,1.59l1.92-.42a3.48,3.48,0,0,0-.18-1.43c-.16-.44-1.87,0-1.92.42a9.67,9.67,0,0,0-.06,1.7l1.93-.53a9.8,9.8,0,0,1-.13-2.1c0-.32-1.91-.08-1.93.51a9.9,9.9,0,0,0,.13,2.11c.07.42,2,0,1.93-.52a7.52,7.52,0,0,1,0-1.5l-1.93.42a3.24,3.24,0,0,1,.18,1.44c0,.31,1.85,0,1.92-.42a8.24,8.24,0,0,0,.08-1.79c0-.38-2,0-1.93.52Z" transform="translate(0 0.02)"/>
  <path class="a" d="M112.84,202.65v1.13l1.94-.36-.19-1.29c-.12-.79-2.06-.33-1.93.52l.18,1.29c.12.76,2,.34,1.94-.35v-1.13c0-.93-2-.59-2,.19Z" transform="translate(0 0.02)"/>
  <path class="a" d="M112.77,203.07a1.69,1.69,0,0,0,0,.45c.1.4,2-.08,1.93-.51l-.12-.57c-.09-.39-1.92.07-1.94.52a7.74,7.74,0,0,0,.11,1.6c.06.37,2-.05,1.93-.52a7.74,7.74,0,0,1-.1-1.6l-1.94.52.13.56,1.93-.51a1.77,1.77,0,0,1,0-.46C114.7,202.31,112.81,202.55,112.77,203.07Z" transform="translate(0 0.02)"/>
  <path class="a" d="M121.63,219.59h0c-.16-1-2.1-.45-1.94.52a1,1,0,0,0,.46.67,1.26,1.26,0,0,0,1.39-.1c.32-.25.51-.79.09-1.06Z" transform="translate(0 0.02)"/>
</svg>
